<svg xmlns="http://www.w3.org/2000/svg" viewBox="0 0 800 600" width="800" height="600" role="img" aria-label="A frame of the boids flocking simulation">
  <rect width="800" height="600" fill="#020617" />
  <circle cx="260" cy="220" r="28" fill="#f87171" />
  <circle cx="560" cy="380" r="34" fill="#f87171" />
  <polygon points="6,0 -6,3 -6,-3" fill="#7dd3fc" transform="translate(357.42 472.63) rotate(125.64)" />
  <polygon points="6,0 -6,3 -6,-3" fill="#7dd3fc" transform="translate(307.25 515.48) rotate(-164.14)" />
  <polygon points="6,0 -6,3 -6,-3" fill="#7dd3fc" transform="translate(226.51 436.97) rotate(53.36)" />
  <polygon points="6,0 -6,3 -6,-3" fill="#7dd3fc" transform="translate(271.17 552.70) rotate(-12.91)" />
  <polygon points="6,0 -6,3 -6,-3" fill="#7dd3fc" transform="translate(245.87 383.66) rotate(100.28)" />
  <polygon points="6,0 -6,3 -6,-3" fill="#7dd3fc" transform="translate(298.99 373.44) rotate(126.43)" />
  <polygon points="6,0 -6,3 -6,-3" fill="#7dd3fc" transform="translate(790.78 89.59) rotate(92.35)" />
  <polygon points="6,0 -6,3 -6,-3" fill="#7dd3fc" transform="translate(277.63 540.82) rotate(-37.47)" />
  <polygon points="6,0 -6,3 -6,-3" fill="#7dd3fc" transform="translate(270.39 416.58) rotate(96.16)" />
  <polygon points="6,0 -6,3 -6,-3" fill="#7dd3fc" transform="translate(190.47 398.90) rotate(91.75)" />
  <polygon points="6,0 -6,3 -6,-3" fill="#7dd3fc" transform="translate(382.88 554.39) rotate(-21.48)" />
  <polygon points="6,0 -6,3 -6,-3" fill="#7dd3fc" transform="translate(259.41 408.10) rotate(135.77)" />
  <polygon points="6,0 -6,3 -6,-3" fill="#7dd3fc" transform="translate(269.79 398.66) rotate(68.49)" />
  <polygon points="6,0 -6,3 -6,-3" fill="#7dd3fc" transform="translate(264.63 359.52) rotate(115.43)" />
  <polygon points="6,0 -6,3 -6,-3" fill="#7dd3fc" transform="translate(233.35 422.17) rotate(82.16)" />
  <polygon points="6,0 -6,3 -6,-3" fill="#7dd3fc" transform="translate(232.81 387.15) rotate(132.72)" />
  <polygon points="6,0 -6,3 -6,-3" fill="#7dd3fc" transform="translate(230.12 420.09) rotate(110.50)" />
  <polygon points="6,0 -6,3 -6,-3" fill="#7dd3fc" transform="translate(203.36 396.80) rotate(104.07)" />
  <polygon points="6,0 -6,3 -6,-3" fill="#7dd3fc" transform="translate(236.88 387.59) rotate(100.25)" />
  <polygon points="6,0 -6,3 -6,-3" fill="#7dd3fc" transform="translate(83.69 44.48) rotate(103.01)" />
  <polygon points="6,0 -6,3 -6,-3" fill="#7dd3fc" transform="translate(326.99 535.49) rotate(0.94)" />
  <polygon points="6,0 -6,3 -6,-3" fill="#7dd3fc" transform="translate(202.36 416.51) rotate(93.92)" />
  <polygon points="6,0 -6,3 -6,-3" fill="#7dd3fc" transform="translate(323.23 241.13) rotate(81.87)" />
  <polygon points="6,0 -6,3 -6,-3" fill="#7dd3fc" transform="translate(230.43 390.40) rotate(49.54)" />
  <polygon points="6,0 -6,3 -6,-3" fill="#7dd3fc" transform="translate(257.26 401.89) rotate(55.68)" />
  <polygon points="6,0 -6,3 -6,-3" fill="#7dd3fc" transform="translate(281.00 543.04) rotate(-17.29)" />
  <polygon points="6,0 -6,3 -6,-3" fill="#7dd3fc" transform="translate(220.99 408.16) rotate(173.77)" />
  <polygon points="6,0 -6,3 -6,-3" fill="#7dd3fc" transform="translate(222.92 388.76) rotate(135.60)" />
  <polygon points="6,0 -6,3 -6,-3" fill="#7dd3fc" transform="translate(246.18 418.40) rotate(120.74)" />
  <polygon points="6,0 -6,3 -6,-3" fill="#7dd3fc" transform="translate(287.45 368.43) rotate(108.27)" />
  <polygon points="6,0 -6,3 -6,-3" fill="#7dd3fc" transform="translate(309.31 530.81) rotate(-120.48)" />
  <polygon points="6,0 -6,3 -6,-3" fill="#7dd3fc" transform="translate(238.53 389.05) rotate(96.11)" />
  <polygon points="6,0 -6,3 -6,-3" fill="#7dd3fc" transform="translate(246.00 409.59) rotate(93.38)" />
  <polygon points="6,0 -6,3 -6,-3" fill="#7dd3fc" transform="translate(259.59 378.09) rotate(72.67)" />
  <polygon points="6,0 -6,3 -6,-3" fill="#7dd3fc" transform="translate(335.30 565.28) rotate(-120.38)" />
  <polygon points="6,0 -6,3 -6,-3" fill="#7dd3fc" transform="translate(216.44 375.49) rotate(86.82)" />
  <polygon points="6,0 -6,3 -6,-3" fill="#7dd3fc" transform="translate(208.18 392.69) rotate(119.42)" />
  <polygon points="6,0 -6,3 -6,-3" fill="#7dd3fc" transform="translate(216.70 362.93) rotate(116.69)" />
  <polygon points="6,0 -6,3 -6,-3" fill="#7dd3fc" transform="translate(180.41 400.25) rotate(160.85)" />
  <polygon points="6,0 -6,3 -6,-3" fill="#7dd3fc" transform="translate(790.47 102.32) rotate(77.67)" />
  <polygon points="6,0 -6,3 -6,-3" fill="#7dd3fc" transform="translate(782.62 91.88) rotate(93.60)" />
  <polygon points="6,0 -6,3 -6,-3" fill="#7dd3fc" transform="translate(735.77 533.01) rotate(5.84)" />
  <polygon points="6,0 -6,3 -6,-3" fill="#7dd3fc" transform="translate(249.15 403.25) rotate(72.86)" />
  <polygon points="6,0 -6,3 -6,-3" fill="#7dd3fc" transform="translate(299.75 523.68) rotate(-13.40)" />
  <polygon points="6,0 -6,3 -6,-3" fill="#7dd3fc" transform="translate(261.32 402.68) rotate(22.08)" />
  <polygon points="6,0 -6,3 -6,-3" fill="#7dd3fc" transform="translate(215.38 401.47) rotate(85.27)" />
  <polygon points="6,0 -6,3 -6,-3" fill="#7dd3fc" transform="translate(208.61 408.42) rotate(97.78)" />
  <polygon points="6,0 -6,3 -6,-3" fill="#7dd3fc" transform="translate(318.76 243.16) rotate(78.73)" />
  <polygon points="6,0 -6,3 -6,-3" fill="#7dd3fc" transform="translate(300.43 522.09) rotate(-17.94)" />
  <polygon points="6,0 -6,3 -6,-3" fill="#7dd3fc" transform="translate(252.23 559.88) rotate(-157.74)" />
  <polygon points="6,0 -6,3 -6,-3" fill="#7dd3fc" transform="translate(249.77 405.83) rotate(89.30)" />
  <polygon points="6,0 -6,3 -6,-3" fill="#7dd3fc" transform="translate(236.44 381.27) rotate(118.45)" />
  <polygon points="6,0 -6,3 -6,-3" fill="#7dd3fc" transform="translate(279.04 405.84) rotate(74.26)" />
  <polygon points="6,0 -6,3 -6,-3" fill="#7dd3fc" transform="translate(392.19 541.09) rotate(-108.20)" />
  <polygon points="6,0 -6,3 -6,-3" fill="#7dd3fc" transform="translate(211.44 401.50) rotate(92.92)" />
  <polygon points="6,0 -6,3 -6,-3" fill="#7dd3fc" transform="translate(233.66 425.05) rotate(136.06)" />
  <polygon points="6,0 -6,3 -6,-3" fill="#7dd3fc" transform="translate(242.19 380.35) rotate(129.76)" />
  <polygon points="6,0 -6,3 -6,-3" fill="#7dd3fc" transform="translate(204.71 388.88) rotate(98.19)" />
  <polygon points="6,0 -6,3 -6,-3" fill="#7dd3fc" transform="translate(242.32 389.70) rotate(94.26)" />
  <polygon points="6,0 -6,3 -6,-3" fill="#7dd3fc" transform="translate(183.64 405.31) rotate(88.25)" />
  <polygon points="6,0 -6,3 -6,-3" fill="#7dd3fc" transform="translate(296.56 401.23) rotate(103.49)" />
  <polygon points="6,0 -6,3 -6,-3" fill="#7dd3fc" transform="translate(785.49 98.50) rotate(76.59)" />
  <polygon points="6,0 -6,3 -6,-3" fill="#7dd3fc" transform="translate(277.57 562.35) rotate(-9.87)" />
  <polygon points="6,0 -6,3 -6,-3" fill="#7dd3fc" transform="translate(334.78 532.72) rotate(157.87)" />
  <polygon points="6,0 -6,3 -6,-3" fill="#7dd3fc" transform="translate(253.48 560.90) rotate(-56.17)" />
  <polygon points="6,0 -6,3 -6,-3" fill="#7dd3fc" transform="translate(206.21 386.09) rotate(97.88)" />
  <polygon points="6,0 -6,3 -6,-3" fill="#7dd3fc" transform="translate(265.66 393.63) rotate(91.70)" />
  <polygon points="6,0 -6,3 -6,-3" fill="#7dd3fc" transform="translate(194.33 410.11) rotate(105.88)" />
  <polygon points="6,0 -6,3 -6,-3" fill="#7dd3fc" transform="translate(220.34 411.13) rotate(48.62)" />
  <polygon points="6,0 -6,3 -6,-3" fill="#7dd3fc" transform="translate(386.47 521.25) rotate(-124.09)" />
  <polygon points="6,0 -6,3 -6,-3" fill="#7dd3fc" transform="translate(218.42 394.24) rotate(64.63)" />
  <polygon points="6,0 -6,3 -6,-3" fill="#7dd3fc" transform="translate(273.54 405.45) rotate(56.18)" />
  <polygon points="6,0 -6,3 -6,-3" fill="#7dd3fc" transform="translate(283.98 425.60) rotate(103.84)" />
  <polygon points="6,0 -6,3 -6,-3" fill="#7dd3fc" transform="translate(195.80 394.65) rotate(98.78)" />
  <polygon points="6,0 -6,3 -6,-3" fill="#7dd3fc" transform="translate(392.89 515.98) rotate(99.39)" />
  <polygon points="6,0 -6,3 -6,-3" fill="#7dd3fc" transform="translate(209.82 385.94) rotate(98.34)" />
  <polygon points="6,0 -6,3 -6,-3" fill="#7dd3fc" transform="translate(202.81 386.91) rotate(164.18)" />
  <polygon points="6,0 -6,3 -6,-3" fill="#7dd3fc" transform="translate(242.91 561.42) rotate(36.96)" />
  <polygon points="6,0 -6,3 -6,-3" fill="#7dd3fc" transform="translate(263.46 593.69) rotate(-23.44)" />
  <polygon points="6,0 -6,3 -6,-3" fill="#7dd3fc" transform="translate(328.19 66.56) rotate(77.73)" />
  <polygon points="6,0 -6,3 -6,-3" fill="#7dd3fc" transform="translate(251.96 435.64) rotate(137.13)" />
  <polygon points="6,0 -6,3 -6,-3" fill="#7dd3fc" transform="translate(338.67 574.78) rotate(-81.92)" />
  <polygon points="6,0 -6,3 -6,-3" fill="#7dd3fc" transform="translate(198.73 355.41) rotate(65.64)" />
  <polygon points="6,0 -6,3 -6,-3" fill="#7dd3fc" transform="translate(229.53 400.23) rotate(162.92)" />
  <polygon points="6,0 -6,3 -6,-3" fill="#7dd3fc" transform="translate(788.39 96.96) rotate(86.96)" />
  <polygon points="6,0 -6,3 -6,-3" fill="#7dd3fc" transform="translate(270.35 373.79) rotate(132.92)" />
  <polygon points="6,0 -6,3 -6,-3" fill="#7dd3fc" transform="translate(387.06 539.66) rotate(-27.22)" />
  <polygon points="6,0 -6,3 -6,-3" fill="#7dd3fc" transform="translate(302.89 532.21) rotate(-126.40)" />
  <polygon points="6,0 -6,3 -6,-3" fill="#7dd3fc" transform="translate(298.86 539.70) rotate(165.80)" />
  <polygon points="6,0 -6,3 -6,-3" fill="#7dd3fc" transform="translate(201.88 414.39) rotate(56.45)" />
  <polygon points="6,0 -6,3 -6,-3" fill="#7dd3fc" transform="translate(337.13 524.39) rotate(-167.33)" />
  <polygon points="6,0 -6,3 -6,-3" fill="#7dd3fc" transform="translate(229.92 374.48) rotate(125.32)" />
  <polygon points="6,0 -6,3 -6,-3" fill="#7dd3fc" transform="translate(262.11 417.41) rotate(62.93)" />
  <polygon points="6,0 -6,3 -6,-3" fill="#7dd3fc" transform="translate(262.03 533.02) rotate(51.63)" />
  <polygon points="6,0 -6,3 -6,-3" fill="#7dd3fc" transform="translate(259.57 419.43) rotate(120.05)" />
  <polygon points="6,0 -6,3 -6,-3" fill="#7dd3fc" transform="translate(424.24 438.32) rotate(-178.54)" />
  <polygon points="6,0 -6,3 -6,-3" fill="#7dd3fc" transform="translate(246.48 400.78) rotate(146.80)" />
  <polygon points="6,0 -6,3 -6,-3" fill="#7dd3fc" transform="translate(342.56 521.71) rotate(-129.18)" />
  <polygon points="6,0 -6,3 -6,-3" fill="#7dd3fc" transform="translate(251.31 365.26) rotate(111.74)" />
  <polygon points="6,0 -6,3 -6,-3" fill="#7dd3fc" transform="translate(269.93 431.98) rotate(129.69)" />
  <polygon points="6,0 -6,3 -6,-3" fill="#7dd3fc" transform="translate(245.67 406.73) rotate(147.48)" />
  <polygon points="6,0 -6,3 -6,-3" fill="#7dd3fc" transform="translate(242.00 427.07) rotate(132.04)" />
  <polygon points="6,0 -6,3 -6,-3" fill="#7dd3fc" transform="translate(273.17 436.72) rotate(119.91)" />
  <polygon points="6,0 -6,3 -6,-3" fill="#7dd3fc" transform="translate(238.29 405.12) rotate(29.83)" />
  <polygon points="6,0 -6,3 -6,-3" fill="#7dd3fc" transform="translate(326.73 475.31) rotate(154.70)" />
  <polygon points="6,0 -6,3 -6,-3" fill="#7dd3fc" transform="translate(269.76 411.72) rotate(87.95)" />
  <polygon points="6,0 -6,3 -6,-3" fill="#7dd3fc" transform="translate(273.00 548.31) rotate(54.00)" />
  <polygon points="6,0 -6,3 -6,-3" fill="#7dd3fc" transform="translate(87.83 31.05) rotate(87.00)" />
  <polygon points="6,0 -6,3 -6,-3" fill="#7dd3fc" transform="translate(382.45 522.57) rotate(-67.08)" />
  <polygon points="6,0 -6,3 -6,-3" fill="#7dd3fc" transform="translate(327.20 476.04) rotate(162.06)" />
  <polygon points="6,0 -6,3 -6,-3" fill="#7dd3fc" transform="translate(357.41 454.10) rotate(164.90)" />
  <polygon points="6,0 -6,3 -6,-3" fill="#7dd3fc" transform="translate(63.37 42.89) rotate(57.88)" />
  <polygon points="6,0 -6,3 -6,-3" fill="#7dd3fc" transform="translate(281.03 534.81) rotate(-5.86)" />
  <polygon points="6,0 -6,3 -6,-3" fill="#7dd3fc" transform="translate(356.52 543.27) rotate(152.82)" />
  <polygon points="6,0 -6,3 -6,-3" fill="#7dd3fc" transform="translate(269.62 528.75) rotate(10.28)" />
  <polygon points="6,0 -6,3 -6,-3" fill="#7dd3fc" transform="translate(108.07 30.16) rotate(46.48)" />
  <polygon points="6,0 -6,3 -6,-3" fill="#7dd3fc" transform="translate(226.59 362.01) rotate(67.28)" />
  <polygon points="6,0 -6,3 -6,-3" fill="#7dd3fc" transform="translate(204.36 405.71) rotate(155.00)" />
  <polygon points="6,0 -6,3 -6,-3" fill="#7dd3fc" transform="translate(228.02 395.74) rotate(95.23)" />
  <polygon points="6,0 -6,3 -6,-3" fill="#7dd3fc" transform="translate(351.52 500.51) rotate(-174.32)" />
  <polygon points="6,0 -6,3 -6,-3" fill="#7dd3fc" transform="translate(207.30 360.64) rotate(51.98)" />
  <polygon points="6,0 -6,3 -6,-3" fill="#7dd3fc" transform="translate(201.91 382.10) rotate(116.73)" />
  <polygon points="6,0 -6,3 -6,-3" fill="#7dd3fc" transform="translate(303.30 522.64) rotate(47.81)" />
  <polygon points="6,0 -6,3 -6,-3" fill="#7dd3fc" transform="translate(260.65 420.50) rotate(110.49)" />
  <polygon points="6,0 -6,3 -6,-3" fill="#7dd3fc" transform="translate(201.45 347.34) rotate(68.11)" />
  <polygon points="6,0 -6,3 -6,-3" fill="#7dd3fc" transform="translate(224.95 381.99) rotate(128.97)" />
  <polygon points="6,0 -6,3 -6,-3" fill="#7dd3fc" transform="translate(261.39 417.62) rotate(99.44)" />
  <polygon points="6,0 -6,3 -6,-3" fill="#7dd3fc" transform="translate(327.58 531.47) rotate(149.71)" />
  <polygon points="6,0 -6,3 -6,-3" fill="#7dd3fc" transform="translate(207.83 402.48) rotate(53.43)" />
  <polygon points="6,0 -6,3 -6,-3" fill="#7dd3fc" transform="translate(187.33 412.24) rotate(90.73)" />
  <polygon points="6,0 -6,3 -6,-3" fill="#7dd3fc" transform="translate(240.42 397.14) rotate(145.60)" />
  <polygon points="6,0 -6,3 -6,-3" fill="#7dd3fc" transform="translate(261.16 412.17) rotate(114.98)" />
  <polygon points="6,0 -6,3 -6,-3" fill="#7dd3fc" transform="translate(268.53 567.60) rotate(-5.08)" />
  <polygon points="6,0 -6,3 -6,-3" fill="#7dd3fc" transform="translate(206.82 406.47) rotate(81.47)" />
  <polygon points="6,0 -6,3 -6,-3" fill="#7dd3fc" transform="translate(277.70 568.02) rotate(7.60)" />
  <polygon points="6,0 -6,3 -6,-3" fill="#7dd3fc" transform="translate(220.18 387.27) rotate(125.38)" />
  <polygon points="6,0 -6,3 -6,-3" fill="#7dd3fc" transform="translate(237.87 416.84) rotate(108.38)" />
  <polygon points="6,0 -6,3 -6,-3" fill="#7dd3fc" transform="translate(284.03 356.00) rotate(120.81)" />
  <polygon points="6,0 -6,3 -6,-3" fill="#7dd3fc" transform="translate(399.71 540.08) rotate(-71.06)" />
  <polygon points="6,0 -6,3 -6,-3" fill="#7dd3fc" transform="translate(193.40 411.14) rotate(103.42)" />
</svg>
